<?xml version="1.0" encoding="UTF-8"?>
<svg id="Layer_1" xmlns="http://www.w3.org/2000/svg" version="1.1" viewBox="0 0 24 24">
  <!-- Generator: Adobe Illustrator 29.0.1, SVG Export Plug-In . SVG Version: 2.1.0 Build 192)  -->
  <defs>
    <style>
      .st0 {
        fill: #a8a8a8;
      }
    </style>
  </defs>
  <path class="st0" d="M6.6,4.6c2.2,1.7,4.6,5,5.4,6.8.9-1.8,3.2-5.1,5.4-6.8,1.6-1.2,4.2-2.1,4.2.8s-.3,4.9-.5,5.6c-.7,2.4-3.2,3.1-5.4,2.7,3.9.7,4.9,2.8,2.7,5-4.1,4.2-5.8-1-6.3-2.4,0-.2-.1-.4-.1-.3,0,0,0,0-.1.3-.5,1.3-2.2,6.5-6.3,2.4-2.1-2.2-1.1-4.4,2.7-5-2.2.4-4.7-.2-5.4-2.7-.2-.7-.5-5-.5-5.6,0-2.9,2.6-2,4.2-.8h0Z"/>
</svg>