<?xml version="1.0" encoding="utf-8"?>
<!-- Generator: Adobe Illustrator 24.3.0, SVG Export Plug-In . SVG Version: 6.00 Build 0)  -->
<svg version="1.1" id="Layer_1" xmlns="http://www.w3.org/2000/svg" xmlns:xlink="http://www.w3.org/1999/xlink" x="0px" y="0px"
	 width="24px" height="24px" viewBox="0 0 24 24" style="enable-background:new 0 0 24 24;" xml:space="preserve">
<style type="text/css">
	.st0{fill:#A8A8A8;}
</style>
<path class="st0" d="M15.2,12c0,1.8-1.5,3.2-3.2,3.2S8.8,13.8,8.8,12s1.5-3.2,3.2-3.2C13.8,8.8,15.2,10.2,15.2,12z M22.1,7.5v8.9
	c0,3.1-2.5,5.7-5.7,5.7H7.5c-3.1,0-5.7-2.5-5.7-5.7V7.5c0-3.1,2.5-5.7,5.7-5.7h8.9C19.6,1.9,22.1,4.4,22.1,7.5z M16.9,12
	c0-2.7-2.2-4.9-4.9-4.9S7.1,9.3,7.1,12s2.2,4.9,4.9,4.9C14.7,16.9,16.9,14.7,16.9,12z M18.5,6.7c0-0.7-0.5-1.2-1.2-1.2
	c-0.7,0-1.2,0.5-1.2,1.2s0.5,1.2,1.2,1.2C17.9,7.9,18.5,7.4,18.5,6.7z"/>
</svg>
