<?xml version="1.0" encoding="utf-8"?>
<!-- Generator: Adobe Illustrator 24.3.0, SVG Export Plug-In . SVG Version: 6.00 Build 0)  -->
<svg version="1.1" id="Layer_1" xmlns="http://www.w3.org/2000/svg" xmlns:xlink="http://www.w3.org/1999/xlink" x="0px" y="0px"
	 width="24px" height="24px" viewBox="0 0 24 24" enable-background="new 0 0 24 24" xml:space="preserve">
<path fill="#A8A8A8" d="M22,8.1c0-4.7-3.1-6-3.1-6c-1.5-0.7-4.2-1-6.9-1h0C9.3,1,6.7,1.4,5.1,2c0,0-3.1,1.4-3.1,6c0,1,0,2.4,0,3.6
	c0.1,4.5,0.8,9,5,10.1c1.9,0.5,3.6,0.6,4.9,0.6c2.4-0.1,3.8-0.9,3.8-0.9l-0.1-1.7c0,0-1.7,0.6-3.6,0.5s-4-0.2-4.3-2.6
	c0-0.2,0-0.5,0-0.7c0,0,1.9,0.5,4.3,0.6c1.5,0.1,2.8-0.1,4.2-0.2c2.7-0.3,5-1.9,5.3-3.5C22,11.6,22,8.1,22,8.1z M18.4,14.1h-2.3V8.6
	c0-1.1-0.5-1.7-1.5-1.7c-1,0-1.6,0.7-1.6,2v3h-2.2V9c0-1.4-0.6-2-1.6-2c-0.9,0-1.5,0.6-1.5,1.7v5.5H5.5V8.5c0-1.1,0.3-2,0.9-2.7
	s1.4-1,2.4-1c1.1,0,2,0.5,2.6,1.4L12,6.9L12.6,6c0.6-0.9,1.5-1.4,2.6-1.4c1,0,1.8,0.3,2.4,1s0.9,1.6,0.9,2.7v5.7H18.4z"/>
</svg>
