<?xml version="1.0" encoding="utf-8"?>
<!-- Generator: Adobe Illustrator 24.3.0, SVG Export Plug-In . SVG Version: 6.00 Build 0)  -->
<svg version="1.1" id="Layer_1" xmlns="http://www.w3.org/2000/svg" xmlns:xlink="http://www.w3.org/1999/xlink" x="0px" y="0px"
	 width="24px" height="24px" viewBox="0 0 24 24" style="enable-background:new 0 0 24 24;" xml:space="preserve">
<style type="text/css">
	.st0{fill:#A8A8A8;}
</style>
<path class="st0" d="M16.3,11.3c-0.1,0-0.2-0.1-0.2-0.1c-0.1-2.6-1.6-4.1-3.9-4.1c0,0,0,0,0,0c-1.4,0-2.6,0.6-3.3,1.7l1.3,0.9
	c0.5-0.8,1.4-1,2-1c0,0,0,0,0,0c0.8,0,1.4,0.2,1.7,0.7c0.3,0.3,0.5,0.8,0.6,1.3c-0.7-0.1-1.4-0.2-2.2-0.1c-2.3,0.1-3.7,1.4-3.6,3.3
	c0,0.9,0.5,1.7,1.3,2.2c0.7,0.4,1.5,0.7,2.4,0.6c1.2-0.1,2.1-0.5,2.7-1.3c0.5-0.6,0.8-1.4,0.9-2.5c0.6,0.3,1,0.8,1.2,1.3
	c0.4,0.9,0.4,2.4-0.8,3.6c-1.1,1.1-2.4,1.5-4.3,1.5c-2.2,0-3.8-0.7-4.8-2.1c-1-1.3-1.5-3.1-1.5-5.4c0-2.3,0.5-4.2,1.5-5.4
	c1.1-1.3,2.7-2,4.8-2.1c2.2,0,3.8,0.7,4.9,2.1c0.5,0.7,0.9,1.5,1.2,2.5l1.5-0.4c-0.3-1.2-0.8-2.2-1.5-3.1c-1.4-1.7-3.5-2.6-6.1-2.6
	h0c-2.7,0-4.7,0.9-6.1,2.7C4.8,7.1,4.2,9.3,4.2,12l0,0l0,0c0,2.7,0.7,4.9,1.9,6.4c1.4,1.7,3.4,2.6,6.1,2.7h0c2.4,0,4-0.6,5.4-2
	c1.8-1.8,1.7-4,1.1-5.4C18.3,12.7,17.4,11.9,16.3,11.3z M12.3,15.2c-1,0.1-2-0.4-2.1-1.3c0-0.7,0.5-1.5,2.1-1.6c0.2,0,0.4,0,0.5,0
	c0.6,0,1.1,0.1,1.6,0.2C14.3,14.7,13.2,15.1,12.3,15.2z"/>
</svg>
