<?xml version="1.0" encoding="UTF-8"?>
<svg id="Layer_1" xmlns="http://www.w3.org/2000/svg" version="1.1" viewBox="0 0 24 24">
  <!-- Generator: Adobe Illustrator 29.0.1, SVG Export Plug-In . SVG Version: 2.1.0 Build 192)  -->
  <defs>
    <style>
      .st0 {
        fill: #a8a8a8;
      }
    </style>
  </defs>
  <path class="st0" d="M12,5.7s-5.6,0-7.1.4c-.8.2-1.4.8-1.6,1.6-.4,1.4-.4,4.3-.4,4.3,0,0,0,2.9.4,4.3.2.8.8,1.4,1.6,1.6,1.4.4,7.1.4,7.1.4,0,0,5.6,0,7.1-.4.8-.2,1.4-.8,1.6-1.6.4-1.4.4-4.3.4-4.3,0,0,0-2.9-.4-4.4-.2-.8-.8-1.4-1.6-1.6-1.4-.4-7.1-.4-7.1-.4h0ZM10.2,9.3l4.7,2.7-4.7,2.7v-5.4Z"/>
</svg>